<mxfile host="app.diagrams.net" modified="2023-11-23T21:51:43.093Z" agent="Mozilla/5.0 (Windows NT 10.0; Win64; x64) AppleWebKit/537.36 (KHTML, like Gecko) Chrome/119.0.0.0 Safari/537.36" etag="gyXaqT35phcX3JmpMSrK" version="22.1.3" type="github">
  <diagram name="Page-1" id="e7e014a7-5840-1c2e-5031-d8a46d1fe8dd">
    <mxGraphModel dx="2219" dy="566" grid="1" gridSize="10" guides="1" tooltips="1" connect="1" arrows="1" fold="1" page="1" pageScale="1" pageWidth="1169" pageHeight="826" background="none" math="0" shadow="0">
      <root>
        <mxCell id="0" />
        <mxCell id="1" parent="0" />
        <mxCell id="KljUDpAse7mxWbEG_Xox-55" value="" style="edgeStyle=orthogonalEdgeStyle;rounded=0;orthogonalLoop=1;jettySize=auto;html=1;labelBackgroundColor=none;strokeColor=#736CA8;fontColor=default;" edge="1" parent="1" source="KljUDpAse7mxWbEG_Xox-53" target="KljUDpAse7mxWbEG_Xox-54">
          <mxGeometry relative="1" as="geometry" />
        </mxCell>
        <mxCell id="KljUDpAse7mxWbEG_Xox-53" value="Register&amp;nbsp;" style="rounded=1;whiteSpace=wrap;html=1;align=center;verticalAlign=middle;labelBackgroundColor=none;fillColor=#5D7F99;strokeColor=#D0CEE2;fontColor=#1A1A1A;" vertex="1" parent="1">
          <mxGeometry x="478.75" y="70" width="80" height="20" as="geometry" />
        </mxCell>
        <mxCell id="KljUDpAse7mxWbEG_Xox-77" value="" style="edgeStyle=orthogonalEdgeStyle;rounded=0;orthogonalLoop=1;jettySize=auto;html=1;strokeColor=#736CA8;fontColor=#1A1A1A;" edge="1" parent="1" source="KljUDpAse7mxWbEG_Xox-54" target="KljUDpAse7mxWbEG_Xox-73">
          <mxGeometry relative="1" as="geometry" />
        </mxCell>
        <mxCell id="KljUDpAse7mxWbEG_Xox-54" value="Login" style="whiteSpace=wrap;html=1;rounded=1;labelBackgroundColor=none;fillColor=#5D7F99;strokeColor=#D0CEE2;fontColor=#1A1A1A;" vertex="1" parent="1">
          <mxGeometry x="477.5" y="130" width="82.5" height="20" as="geometry" />
        </mxCell>
        <mxCell id="KljUDpAse7mxWbEG_Xox-96" value="" style="edgeStyle=orthogonalEdgeStyle;rounded=0;orthogonalLoop=1;jettySize=auto;html=1;strokeColor=#736CA8;fontColor=#1A1A1A;exitX=0.5;exitY=1;exitDx=0;exitDy=0;entryX=1;entryY=0.5;entryDx=0;entryDy=0;" edge="1" parent="1" source="KljUDpAse7mxWbEG_Xox-64" target="KljUDpAse7mxWbEG_Xox-54">
          <mxGeometry relative="1" as="geometry">
            <mxPoint x="680" y="190" as="sourcePoint" />
            <mxPoint x="640" y="140" as="targetPoint" />
            <Array as="points">
              <mxPoint x="640" y="140" />
            </Array>
          </mxGeometry>
        </mxCell>
        <mxCell id="KljUDpAse7mxWbEG_Xox-64" value="Display&lt;br&gt;Error" style="rounded=1;whiteSpace=wrap;html=1;labelBackgroundColor=none;fillColor=#5D7F99;strokeColor=#D0CEE2;fontColor=#1A1A1A;direction=west;" vertex="1" parent="1">
          <mxGeometry x="600" y="200" width="80" height="30" as="geometry" />
        </mxCell>
        <mxCell id="KljUDpAse7mxWbEG_Xox-79" value="[No]" style="edgeStyle=orthogonalEdgeStyle;rounded=0;orthogonalLoop=1;jettySize=auto;html=1;strokeColor=#736CA8;fontColor=#1A1A1A;" edge="1" parent="1" source="KljUDpAse7mxWbEG_Xox-73" target="KljUDpAse7mxWbEG_Xox-64">
          <mxGeometry x="0.0303" y="15" relative="1" as="geometry">
            <mxPoint as="offset" />
          </mxGeometry>
        </mxCell>
        <mxCell id="KljUDpAse7mxWbEG_Xox-105" value="" style="edgeStyle=orthogonalEdgeStyle;rounded=0;orthogonalLoop=1;jettySize=auto;html=1;strokeColor=#736CA8;fontColor=#1A1A1A;" edge="1" parent="1" source="KljUDpAse7mxWbEG_Xox-73" target="KljUDpAse7mxWbEG_Xox-103">
          <mxGeometry relative="1" as="geometry" />
        </mxCell>
        <mxCell id="KljUDpAse7mxWbEG_Xox-106" value="[Yes]" style="edgeLabel;html=1;align=center;verticalAlign=middle;resizable=0;points=[];fontColor=#1A1A1A;" vertex="1" connectable="0" parent="KljUDpAse7mxWbEG_Xox-105">
          <mxGeometry x="-0.13" relative="1" as="geometry">
            <mxPoint x="15" as="offset" />
          </mxGeometry>
        </mxCell>
        <mxCell id="KljUDpAse7mxWbEG_Xox-73" value="" style="rhombus;whiteSpace=wrap;html=1;fontColor=#000000;fillColor=#ffffc0;strokeColor=#ff0000;" vertex="1" parent="1">
          <mxGeometry x="478.75" y="190" width="80" height="50" as="geometry" />
        </mxCell>
        <mxCell id="KljUDpAse7mxWbEG_Xox-113" value="" style="edgeStyle=orthogonalEdgeStyle;rounded=0;orthogonalLoop=1;jettySize=auto;html=1;strokeColor=#736CA8;fontColor=#1A1A1A;" edge="1" parent="1" source="KljUDpAse7mxWbEG_Xox-103" target="KljUDpAse7mxWbEG_Xox-111">
          <mxGeometry relative="1" as="geometry" />
        </mxCell>
        <mxCell id="KljUDpAse7mxWbEG_Xox-156" style="edgeStyle=orthogonalEdgeStyle;rounded=0;orthogonalLoop=1;jettySize=auto;html=1;exitX=0.75;exitY=0.5;exitDx=0;exitDy=0;exitPerimeter=0;strokeColor=#736CA8;fontColor=#1A1A1A;startArrow=classic;startFill=1;" edge="1" parent="1" source="KljUDpAse7mxWbEG_Xox-103" target="KljUDpAse7mxWbEG_Xox-124">
          <mxGeometry relative="1" as="geometry" />
        </mxCell>
        <mxCell id="KljUDpAse7mxWbEG_Xox-103" value="" style="shape=line;html=1;strokeWidth=6;strokeColor=#ff0000;fontColor=#1A1A1A;fillColor=#5D7F99;" vertex="1" parent="1">
          <mxGeometry x="-20" y="280" width="1080" height="10" as="geometry" />
        </mxCell>
        <mxCell id="KljUDpAse7mxWbEG_Xox-111" value="Enter Admin ID" style="rounded=1;whiteSpace=wrap;html=1;strokeColor=#D0CEE2;fontColor=#1A1A1A;fillColor=#5D7F99;" vertex="1" parent="1">
          <mxGeometry x="484.38" y="320" width="68.75" height="30" as="geometry" />
        </mxCell>
        <mxCell id="KljUDpAse7mxWbEG_Xox-124" value="Enter Recovery&lt;br&gt;Agent ID" style="rounded=1;whiteSpace=wrap;html=1;strokeColor=#D0CEE2;fontColor=#1A1A1A;fillColor=#5D7F99;" vertex="1" parent="1">
          <mxGeometry x="822.5" y="320" width="90" height="30" as="geometry" />
        </mxCell>
        <mxCell id="KljUDpAse7mxWbEG_Xox-131" value="Enter Customer ID" style="rounded=1;whiteSpace=wrap;html=1;strokeColor=#D0CEE2;fontColor=#1A1A1A;fillColor=#5D7F99;" vertex="1" parent="1">
          <mxGeometry x="50" y="320" width="80" height="30" as="geometry" />
        </mxCell>
        <mxCell id="KljUDpAse7mxWbEG_Xox-134" style="edgeStyle=orthogonalEdgeStyle;rounded=0;orthogonalLoop=1;jettySize=auto;html=1;exitX=0.25;exitY=0.5;exitDx=0;exitDy=0;exitPerimeter=0;entryX=0.5;entryY=0.25;entryDx=0;entryDy=0;entryPerimeter=0;strokeColor=#736CA8;fontColor=#1A1A1A;" edge="1" parent="1" source="KljUDpAse7mxWbEG_Xox-103" target="KljUDpAse7mxWbEG_Xox-131">
          <mxGeometry relative="1" as="geometry" />
        </mxCell>
        <mxCell id="KljUDpAse7mxWbEG_Xox-135" value="" style="shape=line;html=1;strokeWidth=6;strokeColor=#ff0000;fontColor=#1A1A1A;fillColor=#5D7F99;aspect=fixed;" vertex="1" parent="1">
          <mxGeometry x="782.5" y="380" width="170" height="10" as="geometry" />
        </mxCell>
        <mxCell id="KljUDpAse7mxWbEG_Xox-151" style="edgeStyle=orthogonalEdgeStyle;rounded=0;orthogonalLoop=1;jettySize=auto;html=1;exitX=0.5;exitY=1;exitDx=0;exitDy=0;entryX=0.495;entryY=0.36;entryDx=0;entryDy=0;entryPerimeter=0;strokeColor=#736CA8;fontColor=#1A1A1A;" edge="1" parent="1" source="KljUDpAse7mxWbEG_Xox-124" target="KljUDpAse7mxWbEG_Xox-135">
          <mxGeometry relative="1" as="geometry" />
        </mxCell>
        <mxCell id="KljUDpAse7mxWbEG_Xox-158" style="edgeStyle=orthogonalEdgeStyle;rounded=0;orthogonalLoop=1;jettySize=auto;html=1;exitX=0.5;exitY=0;exitDx=0;exitDy=0;strokeColor=#736CA8;fontColor=#1A1A1A;startArrow=classic;startFill=1;" edge="1" parent="1" source="KljUDpAse7mxWbEG_Xox-157" target="KljUDpAse7mxWbEG_Xox-135">
          <mxGeometry relative="1" as="geometry" />
        </mxCell>
        <mxCell id="KljUDpAse7mxWbEG_Xox-160" style="edgeStyle=orthogonalEdgeStyle;rounded=0;orthogonalLoop=1;jettySize=auto;html=1;exitX=0.5;exitY=1;exitDx=0;exitDy=0;entryX=0.5;entryY=0;entryDx=0;entryDy=0;strokeColor=#736CA8;fontColor=#1A1A1A;" edge="1" parent="1" source="KljUDpAse7mxWbEG_Xox-157" target="KljUDpAse7mxWbEG_Xox-159">
          <mxGeometry relative="1" as="geometry" />
        </mxCell>
        <mxCell id="KljUDpAse7mxWbEG_Xox-157" value="Get Report" style="rounded=1;whiteSpace=wrap;html=1;strokeColor=#D0CEE2;fontColor=#1A1A1A;fillColor=#5D7F99;" vertex="1" parent="1">
          <mxGeometry x="825" y="430" width="85" height="30" as="geometry" />
        </mxCell>
        <mxCell id="KljUDpAse7mxWbEG_Xox-163" style="edgeStyle=orthogonalEdgeStyle;rounded=0;orthogonalLoop=1;jettySize=auto;html=1;exitX=0.5;exitY=1;exitDx=0;exitDy=0;entryX=0.5;entryY=0;entryDx=0;entryDy=0;strokeColor=#736CA8;fontColor=#1A1A1A;" edge="1" parent="1" source="KljUDpAse7mxWbEG_Xox-159" target="KljUDpAse7mxWbEG_Xox-161">
          <mxGeometry relative="1" as="geometry" />
        </mxCell>
        <mxCell id="KljUDpAse7mxWbEG_Xox-159" value="Enquire&lt;br&gt;Customer" style="rounded=1;whiteSpace=wrap;html=1;strokeColor=#D0CEE2;fontColor=#1A1A1A;fillColor=#5D7F99;" vertex="1" parent="1">
          <mxGeometry x="830" y="500" width="75" height="30" as="geometry" />
        </mxCell>
        <mxCell id="KljUDpAse7mxWbEG_Xox-167" style="edgeStyle=orthogonalEdgeStyle;rounded=0;orthogonalLoop=1;jettySize=auto;html=1;exitX=0.5;exitY=1;exitDx=0;exitDy=0;entryX=0.5;entryY=0;entryDx=0;entryDy=0;strokeColor=#736CA8;fontColor=#1A1A1A;" edge="1" parent="1" source="KljUDpAse7mxWbEG_Xox-161" target="KljUDpAse7mxWbEG_Xox-164">
          <mxGeometry relative="1" as="geometry" />
        </mxCell>
        <mxCell id="KljUDpAse7mxWbEG_Xox-161" value="Get&amp;nbsp;&lt;br&gt;Payment" style="rounded=1;whiteSpace=wrap;html=1;strokeColor=#D0CEE2;fontColor=#1A1A1A;fillColor=#5D7F99;" vertex="1" parent="1">
          <mxGeometry x="830" y="560" width="75" height="30" as="geometry" />
        </mxCell>
        <mxCell id="KljUDpAse7mxWbEG_Xox-168" style="edgeStyle=orthogonalEdgeStyle;rounded=0;orthogonalLoop=1;jettySize=auto;html=1;exitX=1;exitY=0.5;exitDx=0;exitDy=0;entryX=1;entryY=0.5;entryDx=0;entryDy=0;strokeColor=#736CA8;fontColor=#1A1A1A;" edge="1" parent="1" source="KljUDpAse7mxWbEG_Xox-164" target="KljUDpAse7mxWbEG_Xox-157">
          <mxGeometry relative="1" as="geometry" />
        </mxCell>
        <mxCell id="KljUDpAse7mxWbEG_Xox-169" value="[No]" style="edgeLabel;html=1;align=center;verticalAlign=middle;resizable=0;points=[];fontColor=#1A1A1A;" vertex="1" connectable="0" parent="KljUDpAse7mxWbEG_Xox-168">
          <mxGeometry x="0.3478" y="1" relative="1" as="geometry">
            <mxPoint x="14" y="30" as="offset" />
          </mxGeometry>
        </mxCell>
        <mxCell id="KljUDpAse7mxWbEG_Xox-171" style="edgeStyle=orthogonalEdgeStyle;rounded=0;orthogonalLoop=1;jettySize=auto;html=1;exitX=0.5;exitY=1;exitDx=0;exitDy=0;strokeColor=#736CA8;fontColor=#1A1A1A;" edge="1" parent="1" source="KljUDpAse7mxWbEG_Xox-164" target="KljUDpAse7mxWbEG_Xox-170">
          <mxGeometry relative="1" as="geometry" />
        </mxCell>
        <mxCell id="KljUDpAse7mxWbEG_Xox-172" value="[Yes]" style="edgeLabel;html=1;align=center;verticalAlign=middle;resizable=0;points=[];fontColor=#1A1A1A;" vertex="1" connectable="0" parent="KljUDpAse7mxWbEG_Xox-171">
          <mxGeometry x="-0.2027" y="-2" relative="1" as="geometry">
            <mxPoint x="19" y="3" as="offset" />
          </mxGeometry>
        </mxCell>
        <mxCell id="KljUDpAse7mxWbEG_Xox-164" value="" style="rhombus;whiteSpace=wrap;html=1;fontColor=#000000;fillColor=#ffffc0;strokeColor=#ff0000;" vertex="1" parent="1">
          <mxGeometry x="825" y="620" width="80" height="40" as="geometry" />
        </mxCell>
        <mxCell id="KljUDpAse7mxWbEG_Xox-214" style="edgeStyle=orthogonalEdgeStyle;rounded=0;orthogonalLoop=1;jettySize=auto;html=1;exitX=0.5;exitY=1;exitDx=0;exitDy=0;entryX=0.5;entryY=0;entryDx=0;entryDy=0;strokeColor=#736CA8;fontColor=#1A1A1A;" edge="1" parent="1" source="KljUDpAse7mxWbEG_Xox-170" target="KljUDpAse7mxWbEG_Xox-213">
          <mxGeometry relative="1" as="geometry" />
        </mxCell>
        <mxCell id="KljUDpAse7mxWbEG_Xox-170" value="Clear&lt;br&gt;Account" style="rounded=1;whiteSpace=wrap;html=1;strokeColor=#D0CEE2;fontColor=#1A1A1A;fillColor=#5D7F99;" vertex="1" parent="1">
          <mxGeometry x="823.75" y="700" width="82.5" height="40" as="geometry" />
        </mxCell>
        <mxCell id="KljUDpAse7mxWbEG_Xox-182" style="edgeStyle=orthogonalEdgeStyle;rounded=0;orthogonalLoop=1;jettySize=auto;html=1;strokeColor=#736CA8;fontColor=#1A1A1A;" edge="1" parent="1" source="KljUDpAse7mxWbEG_Xox-173" target="KljUDpAse7mxWbEG_Xox-175">
          <mxGeometry relative="1" as="geometry" />
        </mxCell>
        <mxCell id="KljUDpAse7mxWbEG_Xox-193" style="edgeStyle=orthogonalEdgeStyle;rounded=0;orthogonalLoop=1;jettySize=auto;html=1;exitX=0.75;exitY=0.5;exitDx=0;exitDy=0;exitPerimeter=0;entryX=0.5;entryY=0;entryDx=0;entryDy=0;strokeColor=#736CA8;fontColor=#1A1A1A;" edge="1" parent="1" source="KljUDpAse7mxWbEG_Xox-173" target="KljUDpAse7mxWbEG_Xox-189">
          <mxGeometry relative="1" as="geometry" />
        </mxCell>
        <mxCell id="KljUDpAse7mxWbEG_Xox-227" style="edgeStyle=orthogonalEdgeStyle;rounded=0;orthogonalLoop=1;jettySize=auto;html=1;exitX=0.25;exitY=0.5;exitDx=0;exitDy=0;exitPerimeter=0;entryX=0.5;entryY=0;entryDx=0;entryDy=0;strokeColor=#736CA8;fontColor=#1A1A1A;startArrow=classic;startFill=1;" edge="1" parent="1" source="KljUDpAse7mxWbEG_Xox-173" target="KljUDpAse7mxWbEG_Xox-215">
          <mxGeometry relative="1" as="geometry" />
        </mxCell>
        <mxCell id="KljUDpAse7mxWbEG_Xox-173" value="" style="shape=line;html=1;strokeWidth=6;strokeColor=#ff0000;fontColor=#1A1A1A;fillColor=#5D7F99;" vertex="1" parent="1">
          <mxGeometry x="330" y="380" width="360" height="10" as="geometry" />
        </mxCell>
        <mxCell id="KljUDpAse7mxWbEG_Xox-184" style="edgeStyle=orthogonalEdgeStyle;rounded=0;orthogonalLoop=1;jettySize=auto;html=1;exitX=0.5;exitY=1;exitDx=0;exitDy=0;entryX=0.5;entryY=0;entryDx=0;entryDy=0;strokeColor=#736CA8;fontColor=#1A1A1A;" edge="1" parent="1" source="KljUDpAse7mxWbEG_Xox-175" target="KljUDpAse7mxWbEG_Xox-183">
          <mxGeometry relative="1" as="geometry" />
        </mxCell>
        <mxCell id="KljUDpAse7mxWbEG_Xox-175" value="Receive&lt;br&gt;Application" style="rounded=1;whiteSpace=wrap;html=1;strokeColor=#D0CEE2;fontColor=#1A1A1A;fillColor=#5D7F99;" vertex="1" parent="1">
          <mxGeometry x="470" y="420" width="78.75" height="30" as="geometry" />
        </mxCell>
        <mxCell id="KljUDpAse7mxWbEG_Xox-176" style="edgeStyle=orthogonalEdgeStyle;rounded=0;orthogonalLoop=1;jettySize=auto;html=1;exitX=0.5;exitY=1;exitDx=0;exitDy=0;entryX=0.531;entryY=0.6;entryDx=0;entryDy=0;entryPerimeter=0;strokeColor=#736CA8;fontColor=#1A1A1A;" edge="1" parent="1" source="KljUDpAse7mxWbEG_Xox-111" target="KljUDpAse7mxWbEG_Xox-173">
          <mxGeometry relative="1" as="geometry" />
        </mxCell>
        <mxCell id="KljUDpAse7mxWbEG_Xox-188" style="edgeStyle=orthogonalEdgeStyle;rounded=0;orthogonalLoop=1;jettySize=auto;html=1;exitX=0.5;exitY=1;exitDx=0;exitDy=0;entryX=0.5;entryY=0;entryDx=0;entryDy=0;strokeColor=#736CA8;fontColor=#1A1A1A;" edge="1" parent="1" source="KljUDpAse7mxWbEG_Xox-183" target="KljUDpAse7mxWbEG_Xox-185">
          <mxGeometry relative="1" as="geometry" />
        </mxCell>
        <mxCell id="KljUDpAse7mxWbEG_Xox-183" value="Check&lt;br&gt;Creditability" style="rounded=1;whiteSpace=wrap;html=1;strokeColor=#D0CEE2;fontColor=#1A1A1A;fillColor=#5D7F99;" vertex="1" parent="1">
          <mxGeometry x="464.37" y="500" width="90" height="30" as="geometry" />
        </mxCell>
        <mxCell id="KljUDpAse7mxWbEG_Xox-217" style="edgeStyle=orthogonalEdgeStyle;rounded=0;orthogonalLoop=1;jettySize=auto;html=1;exitX=0.5;exitY=1;exitDx=0;exitDy=0;entryX=0.5;entryY=0;entryDx=0;entryDy=0;strokeColor=#736CA8;fontColor=#1A1A1A;" edge="1" parent="1" source="KljUDpAse7mxWbEG_Xox-185" target="KljUDpAse7mxWbEG_Xox-216">
          <mxGeometry relative="1" as="geometry" />
        </mxCell>
        <mxCell id="KljUDpAse7mxWbEG_Xox-220" style="edgeStyle=orthogonalEdgeStyle;rounded=0;orthogonalLoop=1;jettySize=auto;html=1;exitX=1;exitY=0.5;exitDx=0;exitDy=0;entryX=0;entryY=0.5;entryDx=0;entryDy=0;strokeColor=#736CA8;fontColor=#1A1A1A;" edge="1" parent="1" source="KljUDpAse7mxWbEG_Xox-185" target="KljUDpAse7mxWbEG_Xox-190">
          <mxGeometry relative="1" as="geometry" />
        </mxCell>
        <mxCell id="KljUDpAse7mxWbEG_Xox-223" value="[No]" style="edgeLabel;html=1;align=center;verticalAlign=middle;resizable=0;points=[];fontColor=#1A1A1A;" vertex="1" connectable="0" parent="KljUDpAse7mxWbEG_Xox-220">
          <mxGeometry x="-0.3241" y="2" relative="1" as="geometry">
            <mxPoint x="7" y="-10" as="offset" />
          </mxGeometry>
        </mxCell>
        <mxCell id="KljUDpAse7mxWbEG_Xox-185" value="" style="rhombus;whiteSpace=wrap;html=1;fontColor=#000000;fillColor=#ffffc0;strokeColor=#ff0000;" vertex="1" parent="1">
          <mxGeometry x="468.75" y="592.5" width="80" height="40" as="geometry" />
        </mxCell>
        <mxCell id="KljUDpAse7mxWbEG_Xox-195" style="edgeStyle=orthogonalEdgeStyle;rounded=0;orthogonalLoop=1;jettySize=auto;html=1;exitX=0.5;exitY=1;exitDx=0;exitDy=0;entryX=0.5;entryY=0;entryDx=0;entryDy=0;strokeColor=#736CA8;fontColor=#1A1A1A;" edge="1" parent="1" source="KljUDpAse7mxWbEG_Xox-189" target="KljUDpAse7mxWbEG_Xox-194">
          <mxGeometry relative="1" as="geometry" />
        </mxCell>
        <mxCell id="KljUDpAse7mxWbEG_Xox-189" value="Create Loan&lt;br&gt;Account" style="rounded=1;whiteSpace=wrap;html=1;strokeColor=#D0CEE2;fontColor=#1A1A1A;fillColor=#5D7F99;" vertex="1" parent="1">
          <mxGeometry x="647.5" y="420" width="80" height="30" as="geometry" />
        </mxCell>
        <mxCell id="KljUDpAse7mxWbEG_Xox-225" style="edgeStyle=orthogonalEdgeStyle;rounded=0;orthogonalLoop=1;jettySize=auto;html=1;exitX=0.5;exitY=1;exitDx=0;exitDy=0;entryX=0.5;entryY=0;entryDx=0;entryDy=0;strokeColor=#736CA8;fontColor=#1A1A1A;" edge="1" parent="1" source="KljUDpAse7mxWbEG_Xox-190" target="KljUDpAse7mxWbEG_Xox-224">
          <mxGeometry relative="1" as="geometry" />
        </mxCell>
        <mxCell id="KljUDpAse7mxWbEG_Xox-190" value="Reject&lt;br&gt;Loan" style="rounded=1;whiteSpace=wrap;html=1;strokeColor=#D0CEE2;fontColor=#1A1A1A;fillColor=#5D7F99;" vertex="1" parent="1">
          <mxGeometry x="591.25" y="600" width="62.5" height="25" as="geometry" />
        </mxCell>
        <mxCell id="KljUDpAse7mxWbEG_Xox-203" style="edgeStyle=orthogonalEdgeStyle;rounded=0;orthogonalLoop=1;jettySize=auto;html=1;exitX=0.5;exitY=1;exitDx=0;exitDy=0;entryX=0.5;entryY=0;entryDx=0;entryDy=0;strokeColor=#736CA8;fontColor=#1A1A1A;" edge="1" parent="1" source="KljUDpAse7mxWbEG_Xox-194" target="KljUDpAse7mxWbEG_Xox-199">
          <mxGeometry relative="1" as="geometry" />
        </mxCell>
        <mxCell id="KljUDpAse7mxWbEG_Xox-194" value="Disburse&lt;br&gt;Amount" style="rounded=1;whiteSpace=wrap;html=1;strokeColor=#D0CEE2;fontColor=#1A1A1A;fillColor=#5D7F99;" vertex="1" parent="1">
          <mxGeometry x="647.5" y="490" width="80" height="30" as="geometry" />
        </mxCell>
        <mxCell id="KljUDpAse7mxWbEG_Xox-204" style="edgeStyle=orthogonalEdgeStyle;rounded=0;orthogonalLoop=1;jettySize=auto;html=1;exitX=1;exitY=0.5;exitDx=0;exitDy=0;entryX=1;entryY=0.5;entryDx=0;entryDy=0;strokeColor=#736CA8;fontColor=#1A1A1A;" edge="1" parent="1" source="KljUDpAse7mxWbEG_Xox-199" target="KljUDpAse7mxWbEG_Xox-194">
          <mxGeometry relative="1" as="geometry" />
        </mxCell>
        <mxCell id="KljUDpAse7mxWbEG_Xox-205" value="[No]" style="edgeLabel;html=1;align=center;verticalAlign=middle;resizable=0;points=[];fontColor=#1A1A1A;" vertex="1" connectable="0" parent="KljUDpAse7mxWbEG_Xox-204">
          <mxGeometry x="-0.0182" relative="1" as="geometry">
            <mxPoint x="18" as="offset" />
          </mxGeometry>
        </mxCell>
        <mxCell id="KljUDpAse7mxWbEG_Xox-209" style="edgeStyle=orthogonalEdgeStyle;rounded=0;orthogonalLoop=1;jettySize=auto;html=1;exitX=0.5;exitY=1;exitDx=0;exitDy=0;entryX=0.5;entryY=0;entryDx=0;entryDy=0;strokeColor=#736CA8;fontColor=#1A1A1A;" edge="1" parent="1" source="KljUDpAse7mxWbEG_Xox-199" target="KljUDpAse7mxWbEG_Xox-208">
          <mxGeometry relative="1" as="geometry" />
        </mxCell>
        <mxCell id="KljUDpAse7mxWbEG_Xox-210" value="[Yes]" style="edgeLabel;html=1;align=center;verticalAlign=middle;resizable=0;points=[];fontColor=#1A1A1A;" vertex="1" connectable="0" parent="KljUDpAse7mxWbEG_Xox-209">
          <mxGeometry x="-0.0286" y="2" relative="1" as="geometry">
            <mxPoint x="16" y="-2" as="offset" />
          </mxGeometry>
        </mxCell>
        <mxCell id="KljUDpAse7mxWbEG_Xox-199" value="" style="rhombus;whiteSpace=wrap;html=1;fontColor=#000000;fillColor=#ffffc0;strokeColor=#ff0000;" vertex="1" parent="1">
          <mxGeometry x="647.5" y="560" width="80" height="40" as="geometry" />
        </mxCell>
        <mxCell id="KljUDpAse7mxWbEG_Xox-206" value="" style="ellipse;html=1;shape=endState;fillColor=#000000;strokeColor=#ff0000;fontColor=#1A1A1A;" vertex="1" parent="1">
          <mxGeometry x="671.88" y="770" width="30" height="30" as="geometry" />
        </mxCell>
        <mxCell id="KljUDpAse7mxWbEG_Xox-212" style="edgeStyle=orthogonalEdgeStyle;rounded=0;orthogonalLoop=1;jettySize=auto;html=1;exitX=0.5;exitY=1;exitDx=0;exitDy=0;entryX=0.5;entryY=0;entryDx=0;entryDy=0;strokeColor=#736CA8;fontColor=#1A1A1A;" edge="1" parent="1" source="KljUDpAse7mxWbEG_Xox-207" target="KljUDpAse7mxWbEG_Xox-206">
          <mxGeometry relative="1" as="geometry" />
        </mxCell>
        <mxCell id="KljUDpAse7mxWbEG_Xox-207" value="Close&lt;br&gt;Account" style="rounded=1;whiteSpace=wrap;html=1;strokeColor=#D0CEE2;fontColor=#1A1A1A;fillColor=#5D7F99;" vertex="1" parent="1">
          <mxGeometry x="653.75" y="705" width="66.25" height="30" as="geometry" />
        </mxCell>
        <mxCell id="KljUDpAse7mxWbEG_Xox-211" style="edgeStyle=orthogonalEdgeStyle;rounded=0;orthogonalLoop=1;jettySize=auto;html=1;exitX=0.5;exitY=1;exitDx=0;exitDy=0;entryX=0.5;entryY=0;entryDx=0;entryDy=0;strokeColor=#736CA8;fontColor=#1A1A1A;" edge="1" parent="1" source="KljUDpAse7mxWbEG_Xox-208" target="KljUDpAse7mxWbEG_Xox-207">
          <mxGeometry relative="1" as="geometry" />
        </mxCell>
        <mxCell id="KljUDpAse7mxWbEG_Xox-208" value="Access&lt;br&gt;Amount" style="rounded=1;whiteSpace=wrap;html=1;strokeColor=#D0CEE2;fontColor=#1A1A1A;fillColor=#5D7F99;" vertex="1" parent="1">
          <mxGeometry x="653.75" y="632.5" width="67.5" height="30" as="geometry" />
        </mxCell>
        <mxCell id="KljUDpAse7mxWbEG_Xox-213" value="" style="ellipse;html=1;shape=endState;fillColor=#000000;strokeColor=#ff0000;fontColor=#1A1A1A;" vertex="1" parent="1">
          <mxGeometry x="850" y="770" width="30" height="30" as="geometry" />
        </mxCell>
        <mxCell id="KljUDpAse7mxWbEG_Xox-231" style="edgeStyle=orthogonalEdgeStyle;rounded=0;orthogonalLoop=1;jettySize=auto;html=1;exitX=0.5;exitY=1;exitDx=0;exitDy=0;entryX=0.5;entryY=0;entryDx=0;entryDy=0;strokeColor=#736CA8;fontColor=#1A1A1A;" edge="1" parent="1" source="KljUDpAse7mxWbEG_Xox-215" target="KljUDpAse7mxWbEG_Xox-229">
          <mxGeometry relative="1" as="geometry" />
        </mxCell>
        <mxCell id="KljUDpAse7mxWbEG_Xox-215" value="Sent Loan&lt;br&gt;Type" style="rounded=1;whiteSpace=wrap;html=1;strokeColor=#D0CEE2;fontColor=#1A1A1A;fillColor=#5D7F99;" vertex="1" parent="1">
          <mxGeometry x="350" y="420" width="70" height="30" as="geometry" />
        </mxCell>
        <mxCell id="KljUDpAse7mxWbEG_Xox-226" style="edgeStyle=orthogonalEdgeStyle;rounded=0;orthogonalLoop=1;jettySize=auto;html=1;exitX=1;exitY=0.5;exitDx=0;exitDy=0;entryX=0;entryY=0.5;entryDx=0;entryDy=0;strokeColor=#736CA8;fontColor=#1A1A1A;" edge="1" parent="1" source="KljUDpAse7mxWbEG_Xox-216" target="KljUDpAse7mxWbEG_Xox-224">
          <mxGeometry relative="1" as="geometry" />
        </mxCell>
        <mxCell id="KljUDpAse7mxWbEG_Xox-216" value="Accept&lt;br&gt;Loan" style="rounded=1;whiteSpace=wrap;html=1;strokeColor=#D0CEE2;fontColor=#1A1A1A;fillColor=#5D7F99;" vertex="1" parent="1">
          <mxGeometry x="476.88" y="680" width="63.75" height="30" as="geometry" />
        </mxCell>
        <mxCell id="KljUDpAse7mxWbEG_Xox-218" style="edgeStyle=orthogonalEdgeStyle;rounded=0;orthogonalLoop=1;jettySize=auto;html=1;exitX=0.5;exitY=1;exitDx=0;exitDy=0;strokeColor=#736CA8;fontColor=#1A1A1A;" edge="1" parent="1" source="KljUDpAse7mxWbEG_Xox-189" target="KljUDpAse7mxWbEG_Xox-189">
          <mxGeometry relative="1" as="geometry" />
        </mxCell>
        <mxCell id="KljUDpAse7mxWbEG_Xox-224" value="" style="ellipse;html=1;shape=endState;fillColor=#000000;strokeColor=#ff0000;fontColor=#1A1A1A;" vertex="1" parent="1">
          <mxGeometry x="607.5" y="680" width="30" height="30" as="geometry" />
        </mxCell>
        <mxCell id="KljUDpAse7mxWbEG_Xox-232" style="edgeStyle=orthogonalEdgeStyle;rounded=0;orthogonalLoop=1;jettySize=auto;html=1;exitX=0.5;exitY=1;exitDx=0;exitDy=0;strokeColor=#736CA8;fontColor=#1A1A1A;" edge="1" parent="1" source="KljUDpAse7mxWbEG_Xox-229" target="KljUDpAse7mxWbEG_Xox-230">
          <mxGeometry relative="1" as="geometry" />
        </mxCell>
        <mxCell id="KljUDpAse7mxWbEG_Xox-229" value="Manage&lt;br&gt;Database" style="rounded=1;whiteSpace=wrap;html=1;strokeColor=#D0CEE2;fontColor=#1A1A1A;fillColor=#5D7F99;" vertex="1" parent="1">
          <mxGeometry x="345" y="520" width="80" height="35" as="geometry" />
        </mxCell>
        <mxCell id="KljUDpAse7mxWbEG_Xox-239" style="edgeStyle=orthogonalEdgeStyle;rounded=0;orthogonalLoop=1;jettySize=auto;html=1;exitX=0.5;exitY=1;exitDx=0;exitDy=0;strokeColor=#736CA8;fontColor=#1A1A1A;" edge="1" parent="1" source="KljUDpAse7mxWbEG_Xox-230" target="KljUDpAse7mxWbEG_Xox-236">
          <mxGeometry relative="1" as="geometry" />
        </mxCell>
        <mxCell id="KljUDpAse7mxWbEG_Xox-230" value="Add&lt;br&gt;Details" style="rounded=1;whiteSpace=wrap;html=1;strokeColor=#D0CEE2;fontColor=#1A1A1A;fillColor=#5D7F99;" vertex="1" parent="1">
          <mxGeometry x="353.75" y="611.25" width="62.5" height="37.5" as="geometry" />
        </mxCell>
        <mxCell id="KljUDpAse7mxWbEG_Xox-240" style="edgeStyle=orthogonalEdgeStyle;rounded=0;orthogonalLoop=1;jettySize=auto;html=1;exitX=1;exitY=0.5;exitDx=0;exitDy=0;entryX=1;entryY=0.5;entryDx=0;entryDy=0;strokeColor=#736CA8;fontColor=#1A1A1A;" edge="1" parent="1" source="KljUDpAse7mxWbEG_Xox-236" target="KljUDpAse7mxWbEG_Xox-230">
          <mxGeometry relative="1" as="geometry" />
        </mxCell>
        <mxCell id="KljUDpAse7mxWbEG_Xox-241" value="[No]" style="edgeLabel;html=1;align=center;verticalAlign=middle;resizable=0;points=[];fontColor=#1A1A1A;" vertex="1" connectable="0" parent="KljUDpAse7mxWbEG_Xox-240">
          <mxGeometry x="0.0558" relative="1" as="geometry">
            <mxPoint x="15" y="2" as="offset" />
          </mxGeometry>
        </mxCell>
        <mxCell id="KljUDpAse7mxWbEG_Xox-244" style="edgeStyle=orthogonalEdgeStyle;rounded=0;orthogonalLoop=1;jettySize=auto;html=1;exitX=0.5;exitY=1;exitDx=0;exitDy=0;entryX=0.5;entryY=0;entryDx=0;entryDy=0;strokeColor=#736CA8;fontColor=#1A1A1A;" edge="1" parent="1" source="KljUDpAse7mxWbEG_Xox-236" target="KljUDpAse7mxWbEG_Xox-242">
          <mxGeometry relative="1" as="geometry" />
        </mxCell>
        <mxCell id="KljUDpAse7mxWbEG_Xox-245" value="[Yes]" style="edgeLabel;html=1;align=center;verticalAlign=middle;resizable=0;points=[];fontColor=#1A1A1A;" vertex="1" connectable="0" parent="KljUDpAse7mxWbEG_Xox-244">
          <mxGeometry x="-0.1529" y="-1" relative="1" as="geometry">
            <mxPoint x="16" y="2" as="offset" />
          </mxGeometry>
        </mxCell>
        <mxCell id="KljUDpAse7mxWbEG_Xox-236" value="" style="rhombus;whiteSpace=wrap;html=1;fontColor=#000000;fillColor=#ffffc0;strokeColor=#ff0000;" vertex="1" parent="1">
          <mxGeometry x="345" y="700" width="80" height="40" as="geometry" />
        </mxCell>
        <mxCell id="KljUDpAse7mxWbEG_Xox-247" style="edgeStyle=orthogonalEdgeStyle;rounded=0;orthogonalLoop=1;jettySize=auto;html=1;exitX=0.5;exitY=1;exitDx=0;exitDy=0;entryX=0.5;entryY=0;entryDx=0;entryDy=0;strokeColor=#736CA8;fontColor=#1A1A1A;" edge="1" parent="1" source="KljUDpAse7mxWbEG_Xox-242" target="KljUDpAse7mxWbEG_Xox-246">
          <mxGeometry relative="1" as="geometry" />
        </mxCell>
        <mxCell id="KljUDpAse7mxWbEG_Xox-242" value="Display" style="rounded=1;whiteSpace=wrap;html=1;strokeColor=#D0CEE2;fontColor=#1A1A1A;fillColor=#5D7F99;" vertex="1" parent="1">
          <mxGeometry x="356.25" y="775" width="60" height="25" as="geometry" />
        </mxCell>
        <mxCell id="KljUDpAse7mxWbEG_Xox-246" value="" style="ellipse;html=1;shape=endState;fillColor=#000000;strokeColor=#ff0000;fontColor=#1A1A1A;" vertex="1" parent="1">
          <mxGeometry x="371.25" y="820" width="30" height="30" as="geometry" />
        </mxCell>
        <mxCell id="KljUDpAse7mxWbEG_Xox-256" style="edgeStyle=orthogonalEdgeStyle;rounded=0;orthogonalLoop=1;jettySize=auto;html=1;exitX=0.75;exitY=0.5;exitDx=0;exitDy=0;exitPerimeter=0;entryX=0.5;entryY=0;entryDx=0;entryDy=0;strokeColor=#736CA8;fontColor=#1A1A1A;startArrow=classic;startFill=1;" edge="1" parent="1" source="KljUDpAse7mxWbEG_Xox-248" target="KljUDpAse7mxWbEG_Xox-253">
          <mxGeometry relative="1" as="geometry" />
        </mxCell>
        <mxCell id="KljUDpAse7mxWbEG_Xox-283" style="edgeStyle=orthogonalEdgeStyle;rounded=0;orthogonalLoop=1;jettySize=auto;html=1;entryX=0.5;entryY=0;entryDx=0;entryDy=0;strokeColor=#736CA8;fontColor=#1A1A1A;" edge="1" parent="1" source="KljUDpAse7mxWbEG_Xox-248" target="KljUDpAse7mxWbEG_Xox-278">
          <mxGeometry relative="1" as="geometry" />
        </mxCell>
        <mxCell id="KljUDpAse7mxWbEG_Xox-305" style="edgeStyle=orthogonalEdgeStyle;rounded=0;orthogonalLoop=1;jettySize=auto;html=1;exitX=0.25;exitY=0.5;exitDx=0;exitDy=0;exitPerimeter=0;entryX=0.5;entryY=0;entryDx=0;entryDy=0;strokeColor=#736CA8;fontColor=#1A1A1A;" edge="1" parent="1" source="KljUDpAse7mxWbEG_Xox-248" target="KljUDpAse7mxWbEG_Xox-301">
          <mxGeometry relative="1" as="geometry" />
        </mxCell>
        <mxCell id="KljUDpAse7mxWbEG_Xox-248" value="" style="shape=line;html=1;strokeWidth=6;strokeColor=#ff0000;fontColor=#1A1A1A;fillColor=#5D7F99;" vertex="1" parent="1">
          <mxGeometry x="-140" y="375" width="460" height="20" as="geometry" />
        </mxCell>
        <mxCell id="KljUDpAse7mxWbEG_Xox-252" style="edgeStyle=orthogonalEdgeStyle;rounded=0;orthogonalLoop=1;jettySize=auto;html=1;exitX=0.5;exitY=1;exitDx=0;exitDy=0;entryX=0.501;entryY=0.2;entryDx=0;entryDy=0;entryPerimeter=0;strokeColor=#736CA8;fontColor=#1A1A1A;" edge="1" parent="1" source="KljUDpAse7mxWbEG_Xox-131" target="KljUDpAse7mxWbEG_Xox-248">
          <mxGeometry relative="1" as="geometry" />
        </mxCell>
        <mxCell id="KljUDpAse7mxWbEG_Xox-260" style="edgeStyle=orthogonalEdgeStyle;rounded=0;orthogonalLoop=1;jettySize=auto;html=1;exitX=0.5;exitY=1;exitDx=0;exitDy=0;entryX=0.5;entryY=0;entryDx=0;entryDy=0;strokeColor=#736CA8;fontColor=#1A1A1A;" edge="1" parent="1" source="KljUDpAse7mxWbEG_Xox-253" target="KljUDpAse7mxWbEG_Xox-257">
          <mxGeometry relative="1" as="geometry" />
        </mxCell>
        <mxCell id="KljUDpAse7mxWbEG_Xox-253" value="Close&lt;br&gt;Account" style="rounded=1;whiteSpace=wrap;html=1;strokeColor=#D0CEE2;fontColor=#1A1A1A;fillColor=#5D7F99;" vertex="1" parent="1">
          <mxGeometry x="170" y="420" width="70" height="30" as="geometry" />
        </mxCell>
        <mxCell id="KljUDpAse7mxWbEG_Xox-277" style="edgeStyle=orthogonalEdgeStyle;rounded=0;orthogonalLoop=1;jettySize=auto;html=1;exitX=0.5;exitY=1;exitDx=0;exitDy=0;entryX=0.5;entryY=0;entryDx=0;entryDy=0;strokeColor=#736CA8;fontColor=#1A1A1A;" edge="1" parent="1" source="KljUDpAse7mxWbEG_Xox-254" target="KljUDpAse7mxWbEG_Xox-276">
          <mxGeometry relative="1" as="geometry" />
        </mxCell>
        <mxCell id="KljUDpAse7mxWbEG_Xox-254" value="Loan&lt;br&gt;Recovery" style="rounded=1;whiteSpace=wrap;html=1;strokeColor=#D0CEE2;fontColor=#1A1A1A;fillColor=#5D7F99;" vertex="1" parent="1">
          <mxGeometry x="276.25" y="648.75" width="61.25" height="40" as="geometry" />
        </mxCell>
        <mxCell id="KljUDpAse7mxWbEG_Xox-268" style="edgeStyle=orthogonalEdgeStyle;rounded=0;orthogonalLoop=1;jettySize=auto;html=1;exitX=0.5;exitY=1;exitDx=0;exitDy=0;entryX=0.5;entryY=0;entryDx=0;entryDy=0;strokeColor=#736CA8;fontColor=#1A1A1A;" edge="1" parent="1" source="KljUDpAse7mxWbEG_Xox-255" target="KljUDpAse7mxWbEG_Xox-265">
          <mxGeometry relative="1" as="geometry" />
        </mxCell>
        <mxCell id="KljUDpAse7mxWbEG_Xox-255" value="Pay EMI" style="rounded=1;whiteSpace=wrap;html=1;strokeColor=#D0CEE2;fontColor=#1A1A1A;fillColor=#5D7F99;" vertex="1" parent="1">
          <mxGeometry x="273.75" y="490" width="66.25" height="20" as="geometry" />
        </mxCell>
        <mxCell id="KljUDpAse7mxWbEG_Xox-263" style="edgeStyle=orthogonalEdgeStyle;rounded=0;orthogonalLoop=1;jettySize=auto;html=1;exitX=1;exitY=0.5;exitDx=0;exitDy=0;entryX=0;entryY=0.5;entryDx=0;entryDy=0;strokeColor=#736CA8;fontColor=#1A1A1A;" edge="1" parent="1" source="KljUDpAse7mxWbEG_Xox-257" target="KljUDpAse7mxWbEG_Xox-255">
          <mxGeometry relative="1" as="geometry" />
        </mxCell>
        <mxCell id="KljUDpAse7mxWbEG_Xox-264" value="[No]" style="edgeLabel;html=1;align=center;verticalAlign=middle;resizable=0;points=[];fontColor=#1A1A1A;" vertex="1" connectable="0" parent="KljUDpAse7mxWbEG_Xox-263">
          <mxGeometry x="-0.4435" y="1" relative="1" as="geometry">
            <mxPoint y="-9" as="offset" />
          </mxGeometry>
        </mxCell>
        <mxCell id="KljUDpAse7mxWbEG_Xox-270" style="edgeStyle=orthogonalEdgeStyle;rounded=0;orthogonalLoop=1;jettySize=auto;html=1;exitX=0.5;exitY=1;exitDx=0;exitDy=0;entryX=0.5;entryY=0;entryDx=0;entryDy=0;strokeColor=#736CA8;fontColor=#1A1A1A;" edge="1" parent="1" source="KljUDpAse7mxWbEG_Xox-257" target="KljUDpAse7mxWbEG_Xox-269">
          <mxGeometry relative="1" as="geometry" />
        </mxCell>
        <mxCell id="KljUDpAse7mxWbEG_Xox-272" value="[Yes]" style="edgeLabel;html=1;align=center;verticalAlign=middle;resizable=0;points=[];fontColor=#1A1A1A;" vertex="1" connectable="0" parent="KljUDpAse7mxWbEG_Xox-270">
          <mxGeometry x="-0.2356" relative="1" as="geometry">
            <mxPoint x="15" y="1" as="offset" />
          </mxGeometry>
        </mxCell>
        <mxCell id="KljUDpAse7mxWbEG_Xox-257" value="" style="rhombus;whiteSpace=wrap;html=1;fontColor=#000000;fillColor=#ffffc0;strokeColor=#ff0000;" vertex="1" parent="1">
          <mxGeometry x="165" y="480" width="80" height="40" as="geometry" />
        </mxCell>
        <mxCell id="KljUDpAse7mxWbEG_Xox-271" style="edgeStyle=orthogonalEdgeStyle;rounded=0;orthogonalLoop=1;jettySize=auto;html=1;exitX=0;exitY=0.5;exitDx=0;exitDy=0;entryX=1;entryY=0.5;entryDx=0;entryDy=0;strokeColor=#736CA8;fontColor=#1A1A1A;" edge="1" parent="1" source="KljUDpAse7mxWbEG_Xox-265" target="KljUDpAse7mxWbEG_Xox-269">
          <mxGeometry relative="1" as="geometry" />
        </mxCell>
        <mxCell id="KljUDpAse7mxWbEG_Xox-273" value="[Yes]" style="edgeLabel;html=1;align=center;verticalAlign=middle;resizable=0;points=[];fontColor=#1A1A1A;" vertex="1" connectable="0" parent="KljUDpAse7mxWbEG_Xox-271">
          <mxGeometry x="-0.0736" y="-1" relative="1" as="geometry">
            <mxPoint x="4" y="-14" as="offset" />
          </mxGeometry>
        </mxCell>
        <mxCell id="KljUDpAse7mxWbEG_Xox-274" style="edgeStyle=orthogonalEdgeStyle;rounded=0;orthogonalLoop=1;jettySize=auto;html=1;exitX=0.5;exitY=1;exitDx=0;exitDy=0;strokeColor=#736CA8;fontColor=#1A1A1A;" edge="1" parent="1" source="KljUDpAse7mxWbEG_Xox-265" target="KljUDpAse7mxWbEG_Xox-254">
          <mxGeometry relative="1" as="geometry" />
        </mxCell>
        <mxCell id="KljUDpAse7mxWbEG_Xox-275" value="[No]" style="edgeLabel;html=1;align=center;verticalAlign=middle;resizable=0;points=[];fontColor=#1A1A1A;" vertex="1" connectable="0" parent="KljUDpAse7mxWbEG_Xox-274">
          <mxGeometry x="-0.19" y="-1" relative="1" as="geometry">
            <mxPoint x="12" y="4" as="offset" />
          </mxGeometry>
        </mxCell>
        <mxCell id="KljUDpAse7mxWbEG_Xox-265" value="" style="rhombus;whiteSpace=wrap;html=1;fontColor=#000000;fillColor=#ffffc0;strokeColor=#ff0000;" vertex="1" parent="1">
          <mxGeometry x="266.88" y="560" width="80" height="40" as="geometry" />
        </mxCell>
        <mxCell id="KljUDpAse7mxWbEG_Xox-269" value="" style="ellipse;html=1;shape=endState;fillColor=#000000;strokeColor=#ff0000;fontColor=#1A1A1A;" vertex="1" parent="1">
          <mxGeometry x="190" y="565" width="30" height="30" as="geometry" />
        </mxCell>
        <mxCell id="KljUDpAse7mxWbEG_Xox-276" value="" style="ellipse;html=1;shape=endState;fillColor=#000000;strokeColor=#ff0000;fontColor=#1A1A1A;" vertex="1" parent="1">
          <mxGeometry x="291.87" y="720" width="30" height="30" as="geometry" />
        </mxCell>
        <mxCell id="KljUDpAse7mxWbEG_Xox-285" style="edgeStyle=orthogonalEdgeStyle;rounded=0;orthogonalLoop=1;jettySize=auto;html=1;exitX=0.5;exitY=1;exitDx=0;exitDy=0;entryX=0.5;entryY=0;entryDx=0;entryDy=0;strokeColor=#736CA8;fontColor=#1A1A1A;" edge="1" parent="1" source="KljUDpAse7mxWbEG_Xox-278" target="KljUDpAse7mxWbEG_Xox-284">
          <mxGeometry relative="1" as="geometry" />
        </mxCell>
        <mxCell id="KljUDpAse7mxWbEG_Xox-278" value="View&lt;br&gt;Loan" style="rounded=1;whiteSpace=wrap;html=1;strokeColor=#D0CEE2;fontColor=#1A1A1A;fillColor=#5D7F99;" vertex="1" parent="1">
          <mxGeometry x="60" y="420" width="60" height="27" as="geometry" />
        </mxCell>
        <mxCell id="KljUDpAse7mxWbEG_Xox-289" style="edgeStyle=orthogonalEdgeStyle;rounded=0;orthogonalLoop=1;jettySize=auto;html=1;exitX=0.5;exitY=1;exitDx=0;exitDy=0;strokeColor=#736CA8;fontColor=#1A1A1A;" edge="1" parent="1" source="KljUDpAse7mxWbEG_Xox-284" target="KljUDpAse7mxWbEG_Xox-286">
          <mxGeometry relative="1" as="geometry" />
        </mxCell>
        <mxCell id="KljUDpAse7mxWbEG_Xox-284" value="Display" style="rounded=1;whiteSpace=wrap;html=1;strokeColor=#D0CEE2;fontColor=#1A1A1A;fillColor=#5D7F99;" vertex="1" parent="1">
          <mxGeometry x="55" y="495" width="70" height="20" as="geometry" />
        </mxCell>
        <mxCell id="KljUDpAse7mxWbEG_Xox-292" style="edgeStyle=orthogonalEdgeStyle;rounded=0;orthogonalLoop=1;jettySize=auto;html=1;exitX=1;exitY=0.5;exitDx=0;exitDy=0;entryX=0;entryY=0.5;entryDx=0;entryDy=0;strokeColor=#736CA8;fontColor=#1A1A1A;" edge="1" parent="1" source="KljUDpAse7mxWbEG_Xox-286" target="KljUDpAse7mxWbEG_Xox-290">
          <mxGeometry relative="1" as="geometry" />
        </mxCell>
        <mxCell id="KljUDpAse7mxWbEG_Xox-294" value="[No]" style="edgeLabel;html=1;align=center;verticalAlign=middle;resizable=0;points=[];fontColor=#1A1A1A;" vertex="1" connectable="0" parent="KljUDpAse7mxWbEG_Xox-292">
          <mxGeometry x="-0.1579" y="-2" relative="1" as="geometry">
            <mxPoint y="-14" as="offset" />
          </mxGeometry>
        </mxCell>
        <mxCell id="KljUDpAse7mxWbEG_Xox-298" style="edgeStyle=orthogonalEdgeStyle;rounded=0;orthogonalLoop=1;jettySize=auto;html=1;exitX=0.5;exitY=1;exitDx=0;exitDy=0;entryX=0;entryY=0.5;entryDx=0;entryDy=0;strokeColor=#736CA8;fontColor=#1A1A1A;" edge="1" parent="1" source="KljUDpAse7mxWbEG_Xox-286" target="KljUDpAse7mxWbEG_Xox-291">
          <mxGeometry relative="1" as="geometry" />
        </mxCell>
        <mxCell id="KljUDpAse7mxWbEG_Xox-299" value="[Yes]" style="edgeLabel;html=1;align=center;verticalAlign=middle;resizable=0;points=[];fontColor=#1A1A1A;" vertex="1" connectable="0" parent="KljUDpAse7mxWbEG_Xox-298">
          <mxGeometry x="-0.4097" y="1" relative="1" as="geometry">
            <mxPoint x="-21" y="-16" as="offset" />
          </mxGeometry>
        </mxCell>
        <mxCell id="KljUDpAse7mxWbEG_Xox-286" value="" style="rhombus;whiteSpace=wrap;html=1;fontColor=#000000;fillColor=#ffffc0;strokeColor=#ff0000;" vertex="1" parent="1">
          <mxGeometry x="50" y="632.5" width="80" height="40" as="geometry" />
        </mxCell>
        <mxCell id="KljUDpAse7mxWbEG_Xox-297" style="edgeStyle=orthogonalEdgeStyle;rounded=0;orthogonalLoop=1;jettySize=auto;html=1;exitX=0.5;exitY=1;exitDx=0;exitDy=0;entryX=0.5;entryY=0;entryDx=0;entryDy=0;strokeColor=#736CA8;fontColor=#1A1A1A;" edge="1" parent="1" source="KljUDpAse7mxWbEG_Xox-290" target="KljUDpAse7mxWbEG_Xox-291">
          <mxGeometry relative="1" as="geometry" />
        </mxCell>
        <mxCell id="KljUDpAse7mxWbEG_Xox-290" value="Contact Credit&lt;br&gt;Advisor" style="rounded=1;whiteSpace=wrap;html=1;strokeColor=#D0CEE2;fontColor=#1A1A1A;fillColor=#5D7F99;" vertex="1" parent="1">
          <mxGeometry x="165" y="633.75" width="85" height="36.25" as="geometry" />
        </mxCell>
        <mxCell id="KljUDpAse7mxWbEG_Xox-291" value="" style="ellipse;html=1;shape=endState;fillColor=#000000;strokeColor=#ff0000;fontColor=#1A1A1A;" vertex="1" parent="1">
          <mxGeometry x="192.5" y="720" width="30" height="30" as="geometry" />
        </mxCell>
        <mxCell id="KljUDpAse7mxWbEG_Xox-309" style="edgeStyle=orthogonalEdgeStyle;rounded=0;orthogonalLoop=1;jettySize=auto;html=1;exitX=0.5;exitY=1;exitDx=0;exitDy=0;entryX=0.5;entryY=0;entryDx=0;entryDy=0;strokeColor=#736CA8;fontColor=#1A1A1A;" edge="1" parent="1" source="KljUDpAse7mxWbEG_Xox-300" target="KljUDpAse7mxWbEG_Xox-306">
          <mxGeometry relative="1" as="geometry" />
        </mxCell>
        <mxCell id="KljUDpAse7mxWbEG_Xox-300" value="Submit&lt;br&gt;Documents" style="rounded=1;whiteSpace=wrap;html=1;strokeColor=#D0CEE2;fontColor=#1A1A1A;fillColor=#5D7F99;" vertex="1" parent="1">
          <mxGeometry x="-70" y="480" width="80" height="40" as="geometry" />
        </mxCell>
        <mxCell id="KljUDpAse7mxWbEG_Xox-304" style="edgeStyle=orthogonalEdgeStyle;rounded=0;orthogonalLoop=1;jettySize=auto;html=1;exitX=0.5;exitY=1;exitDx=0;exitDy=0;entryX=0.5;entryY=0;entryDx=0;entryDy=0;strokeColor=#736CA8;fontColor=#1A1A1A;" edge="1" parent="1" source="KljUDpAse7mxWbEG_Xox-301" target="KljUDpAse7mxWbEG_Xox-300">
          <mxGeometry relative="1" as="geometry" />
        </mxCell>
        <mxCell id="KljUDpAse7mxWbEG_Xox-301" value="Apply Loan" style="rounded=1;whiteSpace=wrap;html=1;strokeColor=#D0CEE2;fontColor=#1A1A1A;fillColor=#5D7F99;" vertex="1" parent="1">
          <mxGeometry x="-70" y="417" width="70" height="30" as="geometry" />
        </mxCell>
        <mxCell id="KljUDpAse7mxWbEG_Xox-312" style="edgeStyle=orthogonalEdgeStyle;rounded=0;orthogonalLoop=1;jettySize=auto;html=1;exitX=0;exitY=0.5;exitDx=0;exitDy=0;entryX=1;entryY=0.5;entryDx=0;entryDy=0;strokeColor=#736CA8;fontColor=#1A1A1A;" edge="1" parent="1" source="KljUDpAse7mxWbEG_Xox-306" target="KljUDpAse7mxWbEG_Xox-311">
          <mxGeometry relative="1" as="geometry" />
        </mxCell>
        <mxCell id="KljUDpAse7mxWbEG_Xox-316" value="[No]" style="edgeLabel;html=1;align=center;verticalAlign=middle;resizable=0;points=[];fontColor=#1A1A1A;" vertex="1" connectable="0" parent="KljUDpAse7mxWbEG_Xox-312">
          <mxGeometry x="-0.12" relative="1" as="geometry">
            <mxPoint y="-10" as="offset" />
          </mxGeometry>
        </mxCell>
        <mxCell id="KljUDpAse7mxWbEG_Xox-313" style="edgeStyle=orthogonalEdgeStyle;rounded=0;orthogonalLoop=1;jettySize=auto;html=1;exitX=0.5;exitY=1;exitDx=0;exitDy=0;strokeColor=#736CA8;fontColor=#1A1A1A;" edge="1" parent="1" source="KljUDpAse7mxWbEG_Xox-306" target="KljUDpAse7mxWbEG_Xox-310">
          <mxGeometry relative="1" as="geometry" />
        </mxCell>
        <mxCell id="KljUDpAse7mxWbEG_Xox-315" value="[Yes]" style="edgeLabel;html=1;align=center;verticalAlign=middle;resizable=0;points=[];fontColor=#1A1A1A;" vertex="1" connectable="0" parent="KljUDpAse7mxWbEG_Xox-313">
          <mxGeometry x="-0.4085" y="1" relative="1" as="geometry">
            <mxPoint x="19" y="8" as="offset" />
          </mxGeometry>
        </mxCell>
        <mxCell id="KljUDpAse7mxWbEG_Xox-306" value="" style="rhombus;whiteSpace=wrap;html=1;fontColor=#000000;fillColor=#ffffc0;strokeColor=#ff0000;" vertex="1" parent="1">
          <mxGeometry x="-70" y="550" width="80" height="40" as="geometry" />
        </mxCell>
        <mxCell id="KljUDpAse7mxWbEG_Xox-328" style="edgeStyle=orthogonalEdgeStyle;rounded=0;orthogonalLoop=1;jettySize=auto;html=1;exitX=0.5;exitY=1;exitDx=0;exitDy=0;entryX=0.5;entryY=0;entryDx=0;entryDy=0;strokeColor=#736CA8;fontColor=#1A1A1A;" edge="1" parent="1" source="KljUDpAse7mxWbEG_Xox-310" target="KljUDpAse7mxWbEG_Xox-317">
          <mxGeometry relative="1" as="geometry" />
        </mxCell>
        <mxCell id="KljUDpAse7mxWbEG_Xox-310" value="Accept&lt;br&gt;Agreement" style="rounded=1;whiteSpace=wrap;html=1;strokeColor=#D0CEE2;fontColor=#1A1A1A;fillColor=#5D7F99;" vertex="1" parent="1">
          <mxGeometry x="-65" y="631.25" width="70" height="31.25" as="geometry" />
        </mxCell>
        <mxCell id="KljUDpAse7mxWbEG_Xox-314" style="edgeStyle=orthogonalEdgeStyle;rounded=0;orthogonalLoop=1;jettySize=auto;html=1;exitX=0.5;exitY=1;exitDx=0;exitDy=0;entryX=0;entryY=0.5;entryDx=0;entryDy=0;strokeColor=#736CA8;fontColor=#1A1A1A;" edge="1" parent="1" source="KljUDpAse7mxWbEG_Xox-311" target="KljUDpAse7mxWbEG_Xox-310">
          <mxGeometry relative="1" as="geometry" />
        </mxCell>
        <mxCell id="KljUDpAse7mxWbEG_Xox-311" value="Resubmit&lt;br&gt;Documents" style="rounded=1;whiteSpace=wrap;html=1;strokeColor=#D0CEE2;fontColor=#1A1A1A;fillColor=#5D7F99;" vertex="1" parent="1">
          <mxGeometry x="-200" y="552.5" width="80" height="35" as="geometry" />
        </mxCell>
        <mxCell id="KljUDpAse7mxWbEG_Xox-329" style="edgeStyle=orthogonalEdgeStyle;rounded=0;orthogonalLoop=1;jettySize=auto;html=1;exitX=0;exitY=0.5;exitDx=0;exitDy=0;strokeColor=#736CA8;fontColor=#1A1A1A;" edge="1" parent="1" source="KljUDpAse7mxWbEG_Xox-317" target="KljUDpAse7mxWbEG_Xox-325">
          <mxGeometry relative="1" as="geometry" />
        </mxCell>
        <mxCell id="KljUDpAse7mxWbEG_Xox-330" value="[No]" style="edgeLabel;html=1;align=center;verticalAlign=middle;resizable=0;points=[];fontColor=#1A1A1A;" vertex="1" connectable="0" parent="KljUDpAse7mxWbEG_Xox-329">
          <mxGeometry x="-0.144" y="-2" relative="1" as="geometry">
            <mxPoint y="-8" as="offset" />
          </mxGeometry>
        </mxCell>
        <mxCell id="KljUDpAse7mxWbEG_Xox-333" style="edgeStyle=orthogonalEdgeStyle;rounded=0;orthogonalLoop=1;jettySize=auto;html=1;exitX=0.5;exitY=1;exitDx=0;exitDy=0;entryX=0.5;entryY=0;entryDx=0;entryDy=0;strokeColor=#736CA8;fontColor=#1A1A1A;" edge="1" parent="1" source="KljUDpAse7mxWbEG_Xox-317" target="KljUDpAse7mxWbEG_Xox-327">
          <mxGeometry relative="1" as="geometry" />
        </mxCell>
        <mxCell id="KljUDpAse7mxWbEG_Xox-335" value="[Yes]" style="edgeLabel;html=1;align=center;verticalAlign=middle;resizable=0;points=[];fontColor=#1A1A1A;" vertex="1" connectable="0" parent="KljUDpAse7mxWbEG_Xox-333">
          <mxGeometry x="-0.1855" y="-1" relative="1" as="geometry">
            <mxPoint x="21" y="-1" as="offset" />
          </mxGeometry>
        </mxCell>
        <mxCell id="KljUDpAse7mxWbEG_Xox-317" value="" style="rhombus;whiteSpace=wrap;html=1;fontColor=#000000;fillColor=#ffffc0;strokeColor=#ff0000;" vertex="1" parent="1">
          <mxGeometry x="-70" y="700" width="80" height="40" as="geometry" />
        </mxCell>
        <mxCell id="KljUDpAse7mxWbEG_Xox-334" style="edgeStyle=orthogonalEdgeStyle;rounded=0;orthogonalLoop=1;jettySize=auto;html=1;exitX=1;exitY=0.5;exitDx=0;exitDy=0;entryX=0;entryY=0.5;entryDx=0;entryDy=0;strokeColor=#736CA8;fontColor=#1A1A1A;" edge="1" parent="1" source="KljUDpAse7mxWbEG_Xox-320" target="KljUDpAse7mxWbEG_Xox-327">
          <mxGeometry relative="1" as="geometry" />
        </mxCell>
        <mxCell id="KljUDpAse7mxWbEG_Xox-337" value="[Yes]" style="edgeLabel;html=1;align=center;verticalAlign=middle;resizable=0;points=[];fontColor=#1A1A1A;" vertex="1" connectable="0" parent="KljUDpAse7mxWbEG_Xox-334">
          <mxGeometry x="-0.3956" relative="1" as="geometry">
            <mxPoint x="6" y="-7" as="offset" />
          </mxGeometry>
        </mxCell>
        <mxCell id="KljUDpAse7mxWbEG_Xox-341" style="edgeStyle=orthogonalEdgeStyle;rounded=0;orthogonalLoop=1;jettySize=auto;html=1;exitX=0.5;exitY=1;exitDx=0;exitDy=0;entryX=0.5;entryY=0;entryDx=0;entryDy=0;strokeColor=#736CA8;fontColor=#1A1A1A;" edge="1" parent="1" source="KljUDpAse7mxWbEG_Xox-320" target="KljUDpAse7mxWbEG_Xox-324">
          <mxGeometry relative="1" as="geometry" />
        </mxCell>
        <mxCell id="KljUDpAse7mxWbEG_Xox-343" value="[No]" style="edgeLabel;html=1;align=center;verticalAlign=middle;resizable=0;points=[];fontColor=#1A1A1A;" vertex="1" connectable="0" parent="KljUDpAse7mxWbEG_Xox-341">
          <mxGeometry x="-0.0071" relative="1" as="geometry">
            <mxPoint x="15" as="offset" />
          </mxGeometry>
        </mxCell>
        <mxCell id="KljUDpAse7mxWbEG_Xox-320" value="" style="rhombus;whiteSpace=wrap;html=1;fontColor=#000000;fillColor=#ffffc0;strokeColor=#ff0000;" vertex="1" parent="1">
          <mxGeometry x="-190" y="797.5" width="80" height="40" as="geometry" />
        </mxCell>
        <mxCell id="KljUDpAse7mxWbEG_Xox-323" value="" style="ellipse;html=1;shape=endState;fillColor=#000000;strokeColor=#ff0000;fontColor=#1A1A1A;" vertex="1" parent="1">
          <mxGeometry x="-50" y="920" width="30" height="30" as="geometry" />
        </mxCell>
        <mxCell id="KljUDpAse7mxWbEG_Xox-324" value="" style="ellipse;html=1;shape=endState;fillColor=#000000;strokeColor=#ff0000;fontColor=#1A1A1A;" vertex="1" parent="1">
          <mxGeometry x="-165" y="880" width="30" height="30" as="geometry" />
        </mxCell>
        <mxCell id="KljUDpAse7mxWbEG_Xox-332" style="edgeStyle=orthogonalEdgeStyle;rounded=0;orthogonalLoop=1;jettySize=auto;html=1;exitX=0.5;exitY=1;exitDx=0;exitDy=0;entryX=0.5;entryY=0;entryDx=0;entryDy=0;strokeColor=#736CA8;fontColor=#1A1A1A;" edge="1" parent="1" source="KljUDpAse7mxWbEG_Xox-325" target="KljUDpAse7mxWbEG_Xox-320">
          <mxGeometry relative="1" as="geometry" />
        </mxCell>
        <mxCell id="KljUDpAse7mxWbEG_Xox-325" value="Reapply" style="rounded=1;whiteSpace=wrap;html=1;strokeColor=#D0CEE2;fontColor=#1A1A1A;fillColor=#5D7F99;" vertex="1" parent="1">
          <mxGeometry x="-180" y="705" width="60" height="30" as="geometry" />
        </mxCell>
        <mxCell id="KljUDpAse7mxWbEG_Xox-342" style="edgeStyle=orthogonalEdgeStyle;rounded=0;orthogonalLoop=1;jettySize=auto;html=1;exitX=0.5;exitY=1;exitDx=0;exitDy=0;entryX=0.5;entryY=0;entryDx=0;entryDy=0;strokeColor=#736CA8;fontColor=#1A1A1A;" edge="1" parent="1" source="KljUDpAse7mxWbEG_Xox-326" target="KljUDpAse7mxWbEG_Xox-323">
          <mxGeometry relative="1" as="geometry" />
        </mxCell>
        <mxCell id="KljUDpAse7mxWbEG_Xox-326" value="Pay EMI" style="rounded=1;whiteSpace=wrap;html=1;strokeColor=#D0CEE2;fontColor=#1A1A1A;fillColor=#5D7F99;" vertex="1" parent="1">
          <mxGeometry x="-65" y="870" width="60" height="20" as="geometry" />
        </mxCell>
        <mxCell id="KljUDpAse7mxWbEG_Xox-338" style="edgeStyle=orthogonalEdgeStyle;rounded=0;orthogonalLoop=1;jettySize=auto;html=1;exitX=0.5;exitY=1;exitDx=0;exitDy=0;entryX=0.5;entryY=0;entryDx=0;entryDy=0;strokeColor=#736CA8;fontColor=#1A1A1A;" edge="1" parent="1" source="KljUDpAse7mxWbEG_Xox-327" target="KljUDpAse7mxWbEG_Xox-326">
          <mxGeometry relative="1" as="geometry" />
        </mxCell>
        <mxCell id="KljUDpAse7mxWbEG_Xox-327" value="Receieve&lt;br&gt;Loan" style="rounded=1;whiteSpace=wrap;html=1;strokeColor=#D0CEE2;fontColor=#1A1A1A;fillColor=#5D7F99;" vertex="1" parent="1">
          <mxGeometry x="-65" y="800" width="70" height="35" as="geometry" />
        </mxCell>
        <mxCell id="KljUDpAse7mxWbEG_Xox-346" style="edgeStyle=orthogonalEdgeStyle;rounded=0;orthogonalLoop=1;jettySize=auto;html=1;exitX=0.5;exitY=1;exitDx=0;exitDy=0;entryX=0.5;entryY=0;entryDx=0;entryDy=0;strokeColor=#736CA8;fontColor=#1A1A1A;" edge="1" parent="1" source="KljUDpAse7mxWbEG_Xox-344" target="KljUDpAse7mxWbEG_Xox-53">
          <mxGeometry relative="1" as="geometry" />
        </mxCell>
        <mxCell id="KljUDpAse7mxWbEG_Xox-344" value="" style="ellipse;html=1;shape=startState;fillColor=#000000;strokeColor=#ff0000;fontColor=#1A1A1A;" vertex="1" parent="1">
          <mxGeometry x="503.75" y="10" width="30" height="30" as="geometry" />
        </mxCell>
      </root>
    </mxGraphModel>
  </diagram>
</mxfile>
